<?xml version="1.0" encoding="UTF-8" standalone="no"?>
<!DOCTYPE svg PUBLIC "-//W3C//DTD SVG 1.1//EN"
 "http://www.w3.org/Graphics/SVG/1.1/DTD/svg11.dtd">
<!-- Generated by graphviz version 2.43.0 (0)
 -->
<!-- Title: G Pages: 1 -->
<svg width="317pt" height="188pt"
 viewBox="0.00 0.00 317.37 188.00" xmlns="http://www.w3.org/2000/svg" xmlns:xlink="http://www.w3.org/1999/xlink">
<g id="graph0" class="graph" transform="scale(1 1) rotate(0) translate(4 184)">
<title>G</title>
<polygon fill="white" stroke="transparent" points="-4,4 -4,-184 313.37,-184 313.37,4 -4,4"/>
<!-- stod(A^N) -->
<g id="node1" class="node">
<title>stod(A^N)</title>
<ellipse fill="none" stroke="black" cx="154.69" cy="-162" rx="59.59" ry="18"/>
<text text-anchor="middle" x="154.69" y="-158.3" font-family="Times,serif" font-size="14.00">stod(A^N)</text>
</g>
<!-- strlen(A^N) == 32 -->
<g id="node2" class="node">
<title>strlen(A^N) == 32</title>
<ellipse fill="none" stroke="black" cx="154.69" cy="-90" rx="100.18" ry="18"/>
<text text-anchor="middle" x="154.69" y="-86.3" font-family="Times,serif" font-size="14.00">strlen(A^N) == 32</text>
</g>
<!-- stod(A^N)&#45;&gt;strlen(A^N) == 32 -->
<g id="edge1" class="edge">
<title>stod(A^N)&#45;&gt;strlen(A^N) == 32</title>
<path fill="none" stroke="black" d="M154.69,-143.7C154.69,-135.98 154.69,-126.71 154.69,-118.11"/>
<polygon fill="black" stroke="black" points="158.19,-118.1 154.69,-108.1 151.19,-118.1 158.19,-118.1"/>
</g>
<!-- this_is_where_the_fun_begins() -->
<g id="node3" class="node">
<title>this_is_where_the_fun_begins()</title>
<ellipse fill="none" stroke="black" cx="154.69" cy="-18" rx="154.87" ry="18"/>
<text text-anchor="middle" x="154.69" y="-14.3" font-family="Times,serif" font-size="14.00">this_is_where_the_fun_begins()</text>
</g>
<!-- strlen(A^N) == 32&#45;&gt;this_is_where_the_fun_begins() -->
<g id="edge2" class="edge">
<title>strlen(A^N) == 32&#45;&gt;this_is_where_the_fun_begins()</title>
<path fill="none" stroke="black" d="M154.69,-71.7C154.69,-63.98 154.69,-54.71 154.69,-46.11"/>
<polygon fill="black" stroke="black" points="158.19,-46.1 154.69,-36.1 151.19,-46.1 158.19,-46.1"/>
</g>
</g>
</svg>
